# xmcd
#
# Track frame offsets:
#	150
#	19985
#	42285
#	60837
#	78380
#	94292
#	111930
#	131107
#	152110
#	170060
#	188267
#
# Disc length: 2732 seconds
#
# Revision: 5
# Processed by: cddbd v1.5.1PL2 Copyright (c) Steve Scherf et al.
# Submitted via: audiograbber 1.83.01
#
DISCID=8a0aaa0b
DTITLE=Echo and The Bunnymen - Flowers
DYEAR=2001
DGENRE=Alternative
TTITLE0=King of Kings
TTITLE1=SuperMellowMan
TTITLE2=Hide and Seek
TTITLE3=Make Me Shine
TTITLE4=It's Alright
TTITLE5=Buried Alive
TTITLE6=Flowers
TTITLE7=Everybody Knows
TTITLE8=Life Goes On
TTITLE9=An Eternity Turns
TTITLE10=Burn for Me
EXTD=YEAR: 2001 ID3G:  12
EXTT0=
EXTT1=
EXTT2=
EXTT3=
EXTT4=
EXTT5=
EXTT6=
EXTT7=
EXTT8=
EXTT9=
EXTT10=
PLAYORDER=
